<svg width="152" height="35" viewBox="0 0 152 35" fill="none" xmlns="http://www.w3.org/2000/svg">
<path d="M60.4785 2H64.8981L69.357 16.4795H65.6642L64.741 13.1714H60.6553L59.7321 16.4795H56L60.4785 2ZM63.8571 9.95377L62.6981 5.09112L62.6785 5.00074L61.5196 9.95377H63.8571Z" fill="#494D4B"/>
<path d="M75.0598 16.4795C74.4051 16.4795 73.7896 16.3228 73.2134 16.0095C72.6372 15.6841 72.1724 15.2563 71.8188 14.726C71.4652 14.1837 71.2884 13.6053 71.2884 12.9907V5.50689C71.2884 4.88023 71.4587 4.30177 71.7991 3.77152C72.1527 3.22922 72.6176 2.8014 73.1938 2.48807C73.7831 2.17474 74.3985 2.01808 75.0402 2.01808H78.8116C79.4663 2.01808 80.0818 2.18077 80.658 2.50615C81.2342 2.81948 81.6991 3.2473 82.0526 3.7896C82.4062 4.31985 82.583 4.89228 82.583 5.50689V8.09186H79.0277V5.83227C79.0277 5.66355 78.9687 5.53099 78.8509 5.43458C78.7461 5.33817 78.6152 5.28997 78.458 5.28997H75.4134C75.2563 5.28997 75.1188 5.3442 75.0009 5.45266C74.8961 5.54907 74.8438 5.6756 74.8438 5.83227V12.6653C74.8438 12.7737 74.87 12.8701 74.9223 12.9545C74.9878 13.0268 75.0598 13.0871 75.1384 13.1353C75.2301 13.1835 75.3283 13.2076 75.433 13.2076H78.4384C78.6086 13.2076 78.7461 13.1533 78.8509 13.0449C78.9556 12.9364 79.008 12.8099 79.008 12.6653L79.0277 10.2611H82.583V12.9907C82.583 13.6053 82.4062 14.1837 82.0526 14.726C81.7121 15.2563 81.2473 15.6841 80.658 16.0095C80.0687 16.3228 79.4401 16.4795 78.7723 16.4795H75.0598Z" fill="#494D4B"/>
<path d="M88.9245 2H107.389L111.769 16.4795H108.076L107.055 13.1714H89.2584L88.2566 16.4795H84.5245L88.9245 2ZM106.19 9.91761L104.678 5.14535H91.6155L90.1423 9.91761H106.19Z" fill="#494D4B"/>
<path d="M113.7 2.01808H117.099L120.929 8.81493L124.799 2.01808H128.295V16.4795H125.368V6.88072L121.44 13.7137H120.458L116.608 6.93495V16.4795H113.7V2.01808Z" fill="#494D4B"/>
<path d="M131.002 2.01808H148.464C149.106 2.01808 149.695 2.16872 150.232 2.47C150.782 2.75922 151.214 3.15691 151.529 3.66306C151.843 4.16921 152 4.72959 152 5.3442V8.88724C152 9.52595 151.849 10.0984 151.548 10.6045C151.247 11.0986 150.835 11.4843 150.311 11.7614C149.787 12.0386 149.198 12.1772 148.543 12.1772H134.577V16.4795H131.002V2.01808ZM147.895 8.90531C148.065 8.90531 148.202 8.85711 148.307 8.7607C148.412 8.66429 148.464 8.53775 148.464 8.38109V5.83227C148.464 5.66355 148.412 5.53099 148.307 5.43458C148.202 5.33817 148.065 5.28997 147.895 5.28997H134.577V8.90531H147.895Z" fill="#494D4B"/>
<path d="M56.825 19.5386H60.1839L68.5517 27.0766L76.9194 19.5386H80.3962V34H76.8409L76.8212 24.2205L69.0034 31.2343H68.1195L60.4 24.2928V34H56.825V19.5386Z" fill="#494D4B"/>
<path d="M86.8752 34C86.2204 34 85.605 33.8433 85.0288 33.53C84.4657 33.2167 84.0074 32.7949 83.6538 32.2646C83.3133 31.7223 83.1431 31.1439 83.1431 30.5293V19.5386H86.6984V30.1858C86.6984 30.3304 86.7573 30.457 86.8752 30.5654C86.9931 30.6739 87.1306 30.7281 87.2877 30.7281H90.2537C90.424 30.7281 90.5615 30.6799 90.6662 30.5835C90.7841 30.475 90.843 30.3425 90.843 30.1858V19.5386H94.4376L94.3787 30.6016C94.3787 31.2403 94.2019 31.8248 93.8484 32.355C93.5079 32.8732 93.0561 33.2769 92.493 33.5662C91.9299 33.8554 91.3406 34 90.7252 34H86.8752Z" fill="#494D4B"/>
<path d="M100.799 34C100.118 34 99.4827 33.8433 98.8934 33.53C98.3173 33.2046 97.8589 32.7768 97.5185 32.2466C97.178 31.7043 97.0078 31.1198 97.0078 30.4931V29.3904H100.583V30.2039C100.583 30.3605 100.635 30.4871 100.74 30.5835C100.845 30.6799 100.976 30.7281 101.133 30.7281H113.842C114.025 30.7281 114.162 30.6799 114.254 30.5835C114.346 30.4871 114.392 30.3605 114.392 30.2039V29.3904C114.392 29.2458 114.346 29.1313 114.254 29.047C114.162 28.9506 114.038 28.8903 113.881 28.8662L100.76 27.8539C100.039 27.7213 99.4042 27.5165 98.8542 27.2393C98.3042 26.9501 97.8589 26.5524 97.5185 26.0462C97.1911 25.528 97.0208 24.8893 97.0078 24.1301L96.9881 22.937C96.975 22.3345 97.1256 21.7741 97.4399 21.2559C97.7673 20.7256 98.2125 20.3099 98.7756 20.0086C99.3387 19.6953 99.9542 19.5386 100.622 19.5386H114.175C114.843 19.5386 115.465 19.7013 116.041 20.0267C116.618 20.34 117.076 20.7678 117.416 21.3101C117.77 21.8404 117.947 22.4128 117.947 23.0274V24.0578H114.392V23.3347C114.392 23.166 114.346 23.0395 114.254 22.9551C114.162 22.8587 114.025 22.8105 113.842 22.8105H101.133C100.976 22.8105 100.845 22.8587 100.74 22.9551C100.635 23.0515 100.583 23.1781 100.583 23.3347V24.0759C100.583 24.1241 100.583 24.1663 100.583 24.2024C100.596 24.2386 100.615 24.2747 100.642 24.3109C100.681 24.3952 100.74 24.4615 100.818 24.5097C100.897 24.5579 100.989 24.5941 101.093 24.6182L114.352 25.6666C115.112 25.8233 115.753 26.0462 116.277 26.3355C116.814 26.6247 117.227 27.0103 117.515 27.4924C117.803 27.9624 117.947 28.5288 117.947 29.1916L117.986 30.6377C117.986 31.2764 117.822 31.8549 117.495 32.3731C117.168 32.8792 116.729 33.2769 116.179 33.5662C115.629 33.8554 115.033 34 114.392 34H100.799Z" fill="#494D4B"/>
<path d="M120.528 30.8185H122.12V22.7201H120.528V19.5386H127.305V22.7201H125.694V30.8185H127.305V34H120.528V30.8185Z" fill="#494D4B"/>
<path d="M133.432 34C132.777 34 132.161 33.8433 131.585 33.53C131.009 33.2046 130.544 32.7768 130.191 32.2466C129.837 31.7043 129.66 31.1258 129.66 30.5112V23.0274C129.66 22.4008 129.83 21.8223 130.171 21.2921C130.524 20.7498 130.989 20.3219 131.565 20.0086C132.155 19.6953 132.77 19.5386 133.412 19.5386H137.183C137.838 19.5386 138.454 19.7013 139.03 20.0267C139.606 20.34 140.071 20.7678 140.424 21.3101C140.778 21.8404 140.955 22.4128 140.955 23.0274V25.6124H137.399V23.3528C137.399 23.1841 137.34 23.0515 137.223 22.9551C137.118 22.8587 136.987 22.8105 136.83 22.8105H133.785C133.628 22.8105 133.49 22.8647 133.373 22.9732C133.268 23.0696 133.215 23.1961 133.215 23.3528V30.1858C133.215 30.2943 133.242 30.3907 133.294 30.475C133.36 30.5473 133.432 30.6076 133.51 30.6558C133.602 30.704 133.7 30.7281 133.805 30.7281H136.81C136.98 30.7281 137.118 30.6739 137.223 30.5654C137.327 30.457 137.38 30.3304 137.38 30.1858L137.399 27.7816H140.955V30.5112C140.955 31.1258 140.778 31.7043 140.424 32.2466C140.084 32.7768 139.619 33.2046 139.03 33.53C138.44 33.8433 137.812 34 137.144 34H133.432Z" fill="#494D4B"/>
<path d="M34.9995 17.3861C35.023 20.4426 34.2414 23.4514 32.733 26.1101C32.5375 26.4554 32.3306 26.7932 32.1122 27.1235C32.0041 27.2914 31.8638 27.4362 31.6994 27.5494C31.5351 27.6627 31.3498 27.7422 31.1544 27.7834C30.959 27.8245 30.7574 27.8264 30.5613 27.7891C30.3652 27.7518 30.1784 27.6759 30.0118 27.5658C29.8453 27.4558 29.7022 27.3138 29.591 27.148C29.4796 26.9823 29.4024 26.7961 29.3636 26.6003C29.3249 26.4045 29.3254 26.203 29.3651 26.0074C29.4049 25.8117 29.4831 25.626 29.5952 25.4607C31.0348 23.276 31.8554 20.742 31.9699 18.1282C32.0842 15.5144 31.488 12.9184 30.2447 10.6163C29.0013 8.31414 27.1572 6.3918 24.9085 5.05363C22.6597 3.71546 20.0903 3.01146 17.4733 3.01645C12.4432 3.02626 7.9831 5.66627 5.39069 9.61081C3.84096 11.9642 3.01629 14.7205 3.01897 17.5381C3.02165 20.3556 3.85157 23.1104 5.40578 25.4607C5.62613 25.7946 5.70479 26.2024 5.62444 26.5942C5.54409 26.9861 5.31133 27.33 4.97736 27.5503C4.64338 27.7706 4.23555 27.8493 3.84358 27.7689C3.45163 27.6886 3.10763 27.4559 2.88728 27.122C1.16393 24.5074 0.17405 21.4783 0.0209272 18.3508C-0.132186 15.2233 0.557069 12.1121 2.01677 9.34171C3.47648 6.57131 5.65313 4.24335 8.31956 2.60074C10.9861 0.958132 14.0447 0.0610684 17.1761 0.00315534C17.2863 0.000896732 17.3956 0.000143915 17.505 0.000143915C22.1298 -0.00938278 26.5693 1.81598 29.8492 5.07556C33.1292 8.33518 34.9814 12.7626 34.9995 17.3861Z" fill="#494D4B"/>
<path d="M6.94393 20.1918L9.67805 33.7893C9.84218 34.6056 10.637 35.1342 11.4535 34.9701C12.27 34.806 12.7989 34.0113 12.6348 33.1951L9.90068 19.5976C9.73655 18.7813 8.94159 18.2526 8.1251 18.4167C7.30863 18.5807 6.7798 19.3755 6.94393 20.1918Z" fill="#04D361"/>
<path d="M9.62593 33.4825L8.93273 33.622C7.90277 33.8294 6.83244 33.6354 5.94073 33.08C5.04901 32.5245 4.40327 31.6493 4.13559 30.6336C4.11523 30.5552 4.09637 30.4768 4.08053 30.3968L3.08715 25.4629C2.87188 24.3919 3.09075 23.2792 3.69567 22.3695C4.30059 21.4597 5.24205 20.8273 6.31316 20.6112L7.00634 20.4717L8.22224 26.5103L9.62593 33.4825Z" fill="#494D4B"/>
<path d="M9.62592 33.4825L8.93282 33.622C7.90276 33.8293 6.83248 33.6354 5.94077 33.0799C5.04905 32.5245 4.40331 31.6494 4.13562 30.6336C5.6006 29.3649 6.96676 27.9865 8.22224 26.5104L9.62592 33.4825Z" fill="#494D4B"/>
<path d="M33.0905 24.3356L32.7329 26.1099C32.5375 26.4553 32.3306 26.7931 32.1121 27.1234C32.0041 27.2913 31.8638 27.436 31.6994 27.5494C31.535 27.6626 31.3498 27.7421 31.1544 27.7832C30.959 27.8243 30.7574 27.8264 30.5613 27.789C30.3651 27.7517 30.1784 27.6758 30.0118 27.5658C29.8452 27.4557 29.7022 27.3136 29.5908 27.1479C29.4796 26.9822 29.4024 26.796 29.3636 26.6003C29.3249 26.4044 29.3253 26.2029 29.3651 26.0072C29.4049 25.8116 29.483 25.6259 29.5952 25.4606C30.6177 23.9135 31.3315 22.1833 31.6973 20.3653C32.265 20.8408 32.694 21.4606 32.9392 22.1592C33.1844 22.8579 33.2366 23.6097 33.0905 24.3356Z" fill="#494D4B"/>
<path d="M31.302 6.71283L29.1381 8.87626C27.7897 7.05335 26.0313 5.5731 24.0049 4.55514C21.9786 3.53718 19.7411 3.01004 17.4733 3.01635C12.4431 3.02614 7.9831 5.66617 5.39066 9.61069L3.19574 7.41638C4.77828 5.16816 6.86918 3.32504 9.29845 2.03689C11.7277 0.748734 14.4267 0.0519049 17.1762 0.00305521C17.2862 0.000796598 17.3956 4.37804e-05 17.505 4.37804e-05C20.1643 -0.00591161 22.7898 0.595786 25.181 1.75919C27.5723 2.92261 29.6659 4.61695 31.302 6.71283Z" fill="#8257E5"/>
<path d="M25.0759 19.5828L22.3418 33.1803C22.1776 33.9966 22.7064 34.7914 23.5229 34.9555C24.3394 35.1195 25.1344 34.5908 25.2985 33.7745L28.0326 20.177C28.1967 19.3608 27.6678 18.5661 26.8513 18.402C26.0348 18.2379 25.24 18.7665 25.0759 19.5828Z" fill="#04D361"/>
<path d="M31.9137 25.4629L30.9204 30.3968C30.7047 31.4678 30.0723 32.4092 29.1624 33.014C28.2524 33.6189 27.1394 33.8376 26.0681 33.622L25.3749 33.4826L26.093 29.918L27.9945 20.4717L28.6877 20.6112C29.7587 20.8276 30.7002 21.4597 31.3058 22.3689C31.3892 22.4943 31.4655 22.6241 31.5343 22.758C31.9647 23.5903 32.0985 24.5444 31.9137 25.4629Z" fill="#494D4B"/>
<path d="M31.9137 25.4629L30.9204 30.3968C30.7047 31.4678 30.0723 32.4092 29.1624 33.0141C28.2524 33.6189 27.1394 33.8376 26.0681 33.622L25.3749 33.4825L26.093 29.918C28.1594 27.7342 29.9838 25.3336 31.5343 22.758C31.9647 23.5903 32.0985 24.5444 31.9137 25.4629Z" fill="#494D4B"/>
</svg>
